---
title: "convert mpg to mp4"
date: 2014-08-11
forum: General Help
---

### Post by satimis on 2014-08-11
Hi all,

Please advise how to convert .mpg video file to .mp4.

TIA

Regards
satimis

---

### Post by JetStorm on 2014-08-11
Handbrake is pretty easy to work with if all you need is transcoding.
[http://handbrake.fr/](http://handbrake.fr/)

---

### Post by sedawk on 2014-08-11
Have a look at avidemux

---

### Post by Jesse_Campton on 2014-08-11
```
avconv -i file.mpg -c:v mpeg2video -q:v 2 -c:a libmp3lame output.mp4
``` works great also..

---

### Post by satimis on 2014-08-11
> **Jesse_Campton said:**
> ```
avconv -i file.mpg -c:v mpeg2video -q:v 2 -c:a libmp3lame output.mp4
``` works great also..
Hi,

Thanks for your advice.

$ avconv -i input_file.MPG -c:v mpeg2video -q:v 2 -c:a libmp3lame output_file.mp4```

avconv version 0.8.13-4:0.8.13-0ubuntu0.12.04.1, Copyright (c) 2000-2014 the Libav developers
  built on Jul 15 2014 12:56:47 with gcc 4.6.3
Input #0, mpeg, from 'MOV_Ayala_Mall_01.MPG':
  Duration: 00:01:23.66, start: 0.070000, bitrate: 10486 kb/s
    Stream #0.0[0x1c0]: Audio: mp2, 32000 Hz, mono, s16, 64 kb/s
    Stream #0.1[0x1e0]: Video: mpeg1video, yuv420p, 640x480 [PAR 1:1 DAR 4:3], 104857 kb/s, 30 fps, 30 tbr, 90k tbn, 30 tbc
Unknown encoder 'libmp3lame'

```

$ apt-cache search libmp3lame```

libmp3lame-dev - MP3 encoding library (development)
libmp3lame-ocaml - OCaml interface to the lame library -- runtime files
libmp3lame-ocaml-dev - OCaml interface to the lame library -- developpement files
libmp3lame0 - MP3 encoding library
libsox-fmt-mp3 - SoX MP3 format library

```

$ apt-cache policy libmp3lame0```

libmp3lame0:
  Installed: 3.99.3+repack1-1
  Candidate: 3.99.3+repack1-1
  Version table:
 *** 3.99.3+repack1-1 0
        500 http://hk.archive.ubuntu.com/ubuntu/ precise/universe amd64 Packages
        100 /var/lib/dpkg/status

```

already installed.  I was stuck here.


Hi all,

handbrake and avidemux are NOT running here.


What is the use of "*.THM" file?   It was generated by Sony Digital Camera together with "*.MPG"

I copied "*.MPG" to another directory.  It still worked alone.

Thanks

Regards
satimis




libmp3lame0 already installed

---

### Post by satimis on 2014-08-12
Hi all,

Further to my posting on #5 above after install libavcodec-extra-53, problem solved.

$ avconv -i input_file.MPG -c:v mpeg2video -q:v 2 -c:a libmp3lame output_file.mp4```

avconv version 0.8.13-4:0.8.13-0ubuntu0.12.04.1, Copyright (c) 2000-2014 the Libav developers
  built on Jul 15 2014 12:56:47 with gcc 4.6.3
Input #0, mpeg, from 'MOV_Ayala_Mall_01.MPG':
  Duration: 00:01:23.66, start: 0.070000, bitrate: 10486 kb/s
    Stream #0.0[0x1c0]: Audio: mp2, 32000 Hz, mono, s16, 64 kb/s
    Stream #0.1[0x1e0]: Video: mpeg1video, yuv420p, 640x480 [PAR 1:1 DAR 4:3], 104857 kb/s, 30 fps, 30 tbr, 90k tbn, 30 tbc
[buffer @ 0xb32180] w:640 h:480 pixfmt:yuv420p
Output #0, mp4, to 'mov_ayala_mall_01.mp4':
  Metadata:
    encoder         : Lavf53.21.1
    Stream #0.0: Video: mpeg2video, yuv420p, 640x480 [PAR 1:1 DAR 4:3], q=2-31, 200 kb/s, 30 tbn, 30 tbc
    Stream #0.1: Audio: libmp3lame, 32000 Hz, mono, s16, 200 kb/s
Stream mapping:
  Stream #0:1 -> #0:0 (mpeg1video -> mpeg2video)
  Stream #0:0 -> #0:1 (mp2 -> libmp3lame)
Press ctrl-c to stop encoding
frame= 2511 fps=129 q=2.0 Lsize=  125302kB time=83.67 bitrate=12268.7kbits/s    
video:123309kB audio:1963kB global headers:0kB muxing overhead 0.024568%

```

Thanks.

But I still don't understand the use of *.THM


Edit:
Is there any efficient way dividing the video into 2/3 sections?  Because the whole file exceeds the max size of file allowed to be uploaded to my webite.


satimis

---

### Post by Jesse_Campton on 2014-08-12
7-zip will break your video up

---

### Post by Jesse_Campton on 2014-08-12
> **satimis said:**
> What is the use of "*.THM" file?  


[COLOR=#000000][FONT=Verdana]The .thm file format is the thumbnail attached to an image or video...It can be safely deleted..[/FONT][/COLOR]

---

### Post by satimis on 2014-08-12
> **Jesse_Campton said:**
> [COLOR=#000000][FONT=Verdana]The .thm file format is the thumbnail attached to an image or video...It can be safely deleted..[/FONT][/COLOR]

Thanks

satimis

---

